<?xml version="1.0" encoding="utf-8"?>
<!-- Generator: Adobe Illustrator 22.0.1, SVG Export Plug-In . SVG Version: 6.00 Build 0)  -->
<svg version="1.1" id="Layer_1" xmlns="http://www.w3.org/2000/svg" xmlns:xlink="http://www.w3.org/1999/xlink" x="0px" y="0px"
	 viewBox="0 0 4500 3000" style="enable-background:new 0 0 4500 3000;" xml:space="preserve">
<style type="text/css">
	.st0{fill:#E3002B;}
	.st1{fill:#0055A5;}
</style>
<g>
	<g>
		<path class="st0" d="M441.1,928.8c44.5,0,77.2,34.1,77.2,77.2c0,44.5-34.1,78.6-77.2,78.6c-43,0-77.2-35.6-77.2-78.6
			C364,962.9,398.1,928.8,441.1,928.8z M377.3,1207.8h127.6v710.7H377.3V1207.8z"/>
		<path class="st1" d="M962.3,1991.1c-132,0-206.2-75.7-206.2-212.2V881.3h-138v875.3c0,243.3,121.7,362,368,362h2783.7v-127.6
			H962.3z"/>
		<path class="st1" d="M1281.3,1933.3c-63.8,0-126.1-17.8-179.5-50.4c-114.3-69.7-179.5-187-179.5-320.5
			c0-99.4,37.1-189.9,105.3-261.1c68.3-69.7,157.3-108.3,255.2-108.3c142.4,0,259.7,77.2,330.9,222.6l-465.9,258.2l-53.4-96.4
			l345.7-192.9c-43-47.5-96.4-71.2-158.8-71.2c-126.1,0-227,105.3-227,247.8c0,141,102.4,247.8,227,247.8
			c118.7,0,207.7-83.1,228.5-224l129.1,19.3C1603.3,1810.2,1462.3,1933.3,1281.3,1933.3z"/>
		<path class="st1" d="M1710.7,881.3v1037.1h127.6V881.3H1710.7z"/>
		<path class="st1" d="M2471,1019.3v188.4h215.1v120.2H2471v304.2c0,114.2,53.4,164.7,175.1,164.7h40.1v121.7h-41.5
			c-200.3,0-301.2-87.5-301.2-264.1v-635H2471z"/>
		<path class="st1" d="M3124.2,1194.4c-123.2,0-198.8,31.2-244.8,118.7v-105.4h-117.2v710.7h127.6v-335.3
			c0-167.5,58.1-249.1,199.4-263.3c12.2-17.9,25.8-34.6,40.9-50.1c30.4-31.2,65.7-56.5,104.6-75.4H3124.2z"/>
		<path class="st1" d="M3642.1,1563.9c0-151.3-95-249.3-227-249.3c-132.1,0-228.5,99.4-228.5,244.8c0,148.4,99.4,250.8,234.4,250.8
			c60.8,0,118.7-20.8,178.1-65.3v136.5c-57.9,32.6-121.7,49-192.9,49c-68.3,0-138-22.3-191.4-59.4
			c-102.4-71.2-157.3-181-157.3-308.6c0-215.1,151.3-368,356.1-368c136.5,0,256.7,72.7,317.5,192.9c37.1,72.7,38.6,146.9,38.6,233
			v298.2h-127.6V1563.9z"/>
		<polygon class="st1" points="2298.2,1918.5 2003.1,1555.1 2257.5,1207 2094.3,1207 1851.5,1564.2 2109.8,1918.5 		"/>
	</g>
	<g>
		<g>
			<path class="st1" d="M3750.4,943.7h-72.8v-39.4c66.2,0,122.3,0,188.9,0v39.4h-72.8v190.2h-43.3V943.7z"/>
			<path class="st1" d="M4092.7,967.7l-74.8,99.7h-8.5l-73.1-100v166.9H3893V904.7h49.8l71.8,98.7l71.8-98.7h49.5v229.6h-43.3V967.7
				z"/>
		</g>
	</g>
</g>
</svg>
