<?xml version="1.0" encoding="utf-8"?>
<!-- Generator: Adobe Illustrator 22.0.1, SVG Export Plug-In . SVG Version: 6.00 Build 0)  -->
<svg version="1.1" id="Layer_1" xmlns="http://www.w3.org/2000/svg" xmlns:xlink="http://www.w3.org/1999/xlink" x="0px" y="0px"
	 viewBox="0 0 4500 3000" style="enable-background:new 0 0 4500 3000;" xml:space="preserve">
<style type="text/css">
	.st0{fill:#020203;}
	.st1{fill:#DC8A21;}
	.st2{fill:#129A39;}
</style>
<g>
	<g>
		<g>
			<path class="st0" d="M399.7,1925.7L525,2098.9l125.3-173.2v270.4h-44.2v-135.2L525,2172.8l-80.8-111.9v135.2h-44.5V1925.7z"/>
			<path class="st0" d="M699.5,1932.6H744v263.5h-44.5V1932.6z"/>
			<path class="st0" d="M837.8,2034.2v161.9h-44.5v-270.4l158.5,169.4v-162.6h44.5v271.1L837.8,2034.2z"/>
			<path class="st0" d="M1045.5,1932.6h164.3v44.5H1090v65h106.1v44.5H1090v65h119.8v44.5h-164.3V1932.6z"/>
			<path class="st0" d="M1299.8,1977.1H1232v-44.5h179.7v44.5h-67.4v219h-44.5V1977.1z"/>
			<path class="st0" d="M1413.7,2064.4c0-76,61.6-135.2,135.2-135.2c76,0,135.2,61.6,135.2,135.2c0,76-61.6,135.2-135.2,135.2
				C1472.9,2199.5,1413.7,2137.9,1413.7,2064.4z M1639.6,2064.4c0-49.6-40-90.7-90.7-90.7c-49.6,0-90.7,40-90.7,90.7
				c0,49.6,40,90.7,90.7,90.7C1598.6,2155,1639.6,2115,1639.6,2064.4z"/>
			<path class="st0" d="M1820.3,1932.6h98.2c45.5,0,82.8,30.1,82.8,82.8c0,53-37,83.2-82.8,83.2h-53.7v97.5h-44.5V1932.6z
				 M1918.5,2054.1c21.2,0,38.3-13.7,38.3-38.7c0-24.6-17.1-38.3-38.3-38.3h-53.7v77H1918.5z"/>
			<path class="st0" d="M2020.9,2064.4c0-76,61.6-135.2,135.2-135.2c76,0,135.2,61.6,135.2,135.2c0,76-61.6,135.2-135.2,135.2
				C2080.1,2199.5,2020.9,2137.9,2020.9,2064.4z M2246.8,2064.4c0-49.6-40-90.7-90.7-90.7c-49.6,0-90.7,40-90.7,90.7
				c0,49.6,40,90.7,90.7,90.7C2205.7,2155,2246.8,2115,2246.8,2064.4z"/>
			<path class="st0" d="M2509.6,2203l-49.6-112.3l-50,112.3l-119.8-270.4h49.3l72.2,171.5l26.4-62.6l-48.3-108.8h45.9l24.3,57.2
				l24-57.2h45.9l-48.3,108.8l26.4,62.6l72.2-171.5h49.3L2509.6,2203z"/>
			<path class="st0" d="M2654.3,1932.6h164.3v44.5h-119.8v65h106.1v44.5h-106.1v65h119.8v44.5h-164.3V1932.6z"/>
			<path class="st0" d="M2997.3,2196.1l-54.1-97.5h-39.4v97.5h-44.5v-263.5h98.2c45.5,0,82.8,33.5,82.8,82.8
				c0,37.6-21.2,66.1-51.7,77.7l59.9,103H2997.3z M2903.8,2054.1h50.3c24.6,0,41.8-13.7,41.8-38.7c0-24.6-17.1-38.3-41.8-38.3h-50.3
				V2054.1z"/>
			<path class="st0" d="M3167,2064c0-75.6,61.3-134.8,136.9-134.8c22.2,0,41.8,5.1,61.3,15.4v55.1c-19.5-17.5-37.3-25.3-61.9-25.3
				c-50.7,0-91,39.4-91,90c0,50,39.4,90,90.7,90c26.4,0,43.5-8.2,62.3-25.7v55.4c-19.5,10.3-39,15.4-61.3,15.4
				C3227.6,2199.5,3167,2139.3,3167,2064z"/>
			<path class="st0" d="M3387.8,2064.4c0-76,61.6-135.2,135.2-135.2c76,0,135.2,61.6,135.2,135.2c0,76-61.6,135.2-135.2,135.2
				C3447,2199.5,3387.8,2137.9,3387.8,2064.4z M3613.7,2064.4c0-49.6-40-90.7-90.7-90.7c-49.6,0-90.7,40-90.7,90.7
				c0,49.6,40,90.7,90.7,90.7C3572.6,2155,3613.7,2115,3613.7,2064.4z"/>
			<path class="st0" d="M3836.4,2196.1l-54.1-97.5H3743v97.5h-44.5v-263.5h98.2c45.5,0,82.8,33.5,82.8,82.8
				c0,37.6-21.2,66.1-51.7,77.7l59.9,103H3836.4z M3743,2054.1h50.3c24.6,0,41.8-13.7,41.8-38.7c0-24.6-17.1-38.3-41.8-38.3H3743
				V2054.1z"/>
			<path class="st0" d="M3919.3,1932.6h98.2c45.5,0,82.8,30.1,82.8,82.8c0,53-37,83.2-82.8,83.2h-53.7v97.5h-44.5V1932.6z
				 M4017.5,2054.1c21.2,0,38.3-13.7,38.3-38.7c0-24.6-17.1-38.3-38.3-38.3h-53.7v77H4017.5z"/>
		</g>
	</g>
	<g>
		<path class="st0" d="M1476.5,980.6c-5.1-5.8-13.2-13.8-24.9-22.3c-25-18.1-40.7-25.7-47-28.4l0.5-1.7c0.5-1.6-0.6-3.4-2.4-4
			l-1.5-0.5c0.2-0.6,0.3-1.3,0.3-1.9c0-2.8-1.7-5.3-4.5-6.2l-3.5-1.1c-3.4-1.1-7.1,0.8-8.2,4.2l-1.6-0.5c-1.9-0.6-3.8,0.2-4.3,1.9
			l-0.5,1.5c0,0-11.2-3.6-37.9-4.7c-3.3,0.3-5.6,4.3-6.1,6.1c-0.5,1.7-2.3,7,1.6,7.3c23.9,5.1,35.9,11.9,35.9,11.9l-0.5,1.3
			c-0.5,1.6,0.6,3.4,2.4,4l1.6,0.5l-23.4,73.4c-5.5,5.6-14.6,13.2-28.7,2.7c-11.4-8.6-53.2-45.7-63.2-54.1c-1.8-1.5-4.5-3.5-7.7-5.8
			c16.6,35.1,39.9,86.7,39.9,86.7s-33.9-56-56.7-81c-10.5-11.5-23.4-22-33.5-29.4c-0.8,0-1.7,0.1-2.5,0.3
			c-27.1,6.1-64.8,40.4-84.4,59.7c-2.4,32.9-37.7,65.9-40,67.9c0.7-1.3,10.3-18.1,18.3-32.5c4.5-8.2,5.9-19.1,6.2-27.4
			c-3.1-5.8-8.3-14.4-11.7-14.4c-0.6,0-1.2,0.2-1.8,0.6l-14.8-46.5l1.6-0.5c1.8-0.6,2.9-2.4,2.4-4l-0.4-1.3c0,0,12-6.7,35.8-11.9
			c3.8-0.3,2-5.6,1.6-7.3c-0.5-1.8-2.7-5.8-6-6.1c-26.8,1.1-38,4.7-38,4.7l-0.5-1.5c-0.5-1.6-2.5-2.5-4.3-1.9l-1.6,0.5
			c-1.1-3.4-4.8-5.3-8.2-4.2l-3.5,1.1c-3.4,1.1-5.3,4.7-4.2,8.2l-1.5,0.5c-1.9,0.6-3,2.4-2.5,4l0.6,1.7c-3.2,1.3-8.7,3.9-16.5,8.4
			c-7.9,4.5-18,10.9-30.6,20c-11.6,8.4-19.7,16.3-24.8,22.1c-5.2,5.9-7.5,9.8-7.8,10.3c0.6-0.4,4.3-2.9,9.9-6.5
			c8.5-5.5,21.5-13.4,34.7-19.8c20.3-9.8,35.1-13.4,41.4-14.5l0.6,1.8c0.6,1.6,2.5,2.5,4.3,1.9l1.6-0.5l17.7,55.5
			c-1.6,1.4-3.2,2.5-4.7,3c-8.8,2.5-15-2-26.6,8.1c-4.2,3.7-7,22.3-22.2,39.1c-0.6,0.7-1.6,1.7-2.9,3l83.2,146.9
			c19.6,34.7,36.8,65.3,51.4,91.5c13.9,24.8,26.9,48.4,38.9,70.3c11.2,20.5,21.1,39.6,29.7,56.8l3.5,6.9c1.1-2.1,2.1-4.3,3.2-6.4
			c8.7-16.9,18.6-35.9,29.5-56.4c11.1-20.8,24.2-44.6,39-70.7c14.7-25.8,31.8-56,51.3-90.7l62.7-111.3
			c-16.1-13.5-40.3-34.7-49.7-43.6c-13.5-13-10.9,8.6-17.7,6.3c-6.8-2.3-54.3-58.7-42.5-47.9c14.3,13,28.8,22,39.1,25.2
			c15,4.5,18.1-7.7,19.8-5.4c1.8,2.2,27,34.5,42.4,52c3.3,3.8,6.8,7.5,10.1,10.8l4.6-8.2c-22.7-24.7-38.9-46.5-48.5-59.3l24.1-75.5
			l1.6,0.5c1.8,0.6,3.8-0.3,4.3-1.9l0.6-1.8c6.3,1.2,21.1,4.7,41.3,14.5c13.3,6.4,26.4,14.4,34.9,19.9c5.6,3.6,9.2,6.1,9.7,6.4
			C1483.9,990.2,1481.7,986.4,1476.5,980.6z M1108,919.2c1.6,0.2,2.1,1.9,2.4,2.6c-20.7,1.9-38.9,7.4-38.9,7.4l-1.6-5
			C1069.9,924.3,1091.7,920.2,1108,919.2z M1006.5,957.3c-12.5,7.5-28.6,20.1-30.5,21.6c1.6-1.7,15-14.7,31-25
			c13.8-8.9,36.4-21.1,36.4-21.1l1.6,5C1045,937.7,1026.1,945.5,1006.5,957.3z M1063.8,922c-0.3,0-0.4,0-0.4,0l-7.6,2.4l-0.1,0
			l-7.6,2.4c0,0-0.1,0-0.2,0.1c-0.4,0.2-1.3,0.7-1.4,1.6c-0.1,0.3-0.1,0.6,0,0.9c0.5,1.7,3.2,14,3.5,15.6l-5.1-15.9l-0.2-0.7
			c0,0-0.3-2.3,2.5-3.4c0.1,0,0.3-0.1,0.4-0.1c2.9-0.9,6.8-2.2,7.4-2.4c0,0,0.1,0,0.1,0c0.7-0.2,4.5-1.4,7.5-2.4
			c0.2-0.1,0.3-0.1,0.5-0.1c2.8-0.7,3.9,1.3,3.9,1.3l5.4,16.7c-0.3-0.7-5.7-13.1-6.2-14.8C1065.8,922,1064.5,922,1063.8,922z
			 M1067.3,950.5l1.3-0.3l-0.4-1.2l1.3-0.4l15.2,47.4c-0.7,0.6-1.4,1.4-2.1,2.3L1067.3,950.5z M1319.6,1114.5
			c-4.4,0-92.8-103.3-94-100.2c-1.3,3.2,37.1,60,20.7,60c-16.5,0-93.2-28.2-93.8-26.3c-0.6,1.9,27.7,31.3,25.3,43.6
			c-1.9,9.6-36,26.2-33.5,19.8c2.6-6.3,25.1-16.2,15.4-30.4c-18.8-27.5-28.4-53.3-22.9-56.3c7.1-3.9,33.7-2.8,81.1,11.3
			c10.1,3-59.7-41.5-57.3-45.9c2.6-4.4,30.2,10,39.8-4.4c5-7.6-4.5-32.8,3.6-35.2c4.9-1.4,28.7,21,50.1,49.9
			C1275.4,1029.2,1324,1114.5,1319.6,1114.5z M1337.6,921.9c0.2-0.7,0.8-2.5,2.4-2.6c16.3,1,38.1,5.1,38.1,5.1l-1.6,5
			C1376.4,929.3,1358.3,923.8,1337.6,921.9z M1359.1,1017.8c-0.6-0.6-1-1-1.3-1.1c-0.4-0.1-0.8,0.1-1.4,0.6l22-68.7l1.3,0.4
			l-0.4,1.2l1.3,0.3L1359.1,1017.8z M1397.9,945.2c0.3-1.6,3.1-13.9,3.6-15.6c0.1-0.3,0.1-0.6,0-0.9c-0.2-0.8-1-1.3-1.4-1.6
			c-0.1-0.1-0.3-0.1-0.3-0.1l-7.6-2.4l-0.1,0l-7.6-2.4c0,0-0.1,0-0.4,0c-0.7-0.1-2,0-2.5,1.3c-0.5,1.6-5.2,12.6-6.1,14.6l5.2-16.5
			c0,0,1.1-2,3.9-1.3c0.2,0,0.3,0,0.5,0.1c3,0.9,6.8,2.1,7.5,2.4c0,0,0,0,0.1,0c0.6,0.2,4.5,1.4,7.4,2.4c0.1,0,0.3,0.1,0.4,0.1
			c2.8,1.1,2.5,3.4,2.5,3.4l-0.2,0.7L1397.9,945.2z M1441.4,957.3c-19.6-11.8-38.4-19.6-38.4-19.6l1.6-5c0,0,22.6,12.1,36.4,21.1
			c15.9,10.3,29.3,23.4,31,25C1470,977.4,1453.9,964.8,1441.4,957.3z"/>
		<path class="st1" d="M971.5,980.4l2.1,3.8c-5.7,3.6-9.4,6.2-9.9,6.5C964,990.2,966.3,986.3,971.5,980.4z"/>
		<path class="st1" d="M1484.2,990.7c-0.6-0.4-4.2-2.9-9.7-6.4l2-3.7C1481.7,986.4,1483.9,990.2,1484.2,990.7z"/>
	</g>
	<path class="st1" d="M1080.5,1219.9c19.6,34.7,36.7,65.2,51.4,91.4c14.7,26.3,27.6,49.6,38.7,70.1c11.1,20.5,20.9,39.2,29.4,56.1
		c8.4,16.9,16.7,33.4,24.7,49.4c7.1-16,14.9-32.2,23.4-48.7c8.4-16.5,18.2-35.1,29.4-56.1c11.1-20.9,24-44.3,38.7-70.1
		c14.7-25.8,31.8-56.1,51.4-90.8l142.9-253.6c16-28.5,36.2-51.4,60.7-68.7c24.5-17.4,54.9-26,91.4-26c34.7,0,66.1,10,94.1,30
		c28,20,48.3,51,60.7,92.8l225.6,785h-275l-84.1-311c-14.2-50.7-26.3-95.2-36-133.5c-9.8-38.3-18.2-75.6-25.4-112.1
		c-15.2,31.2-32,65.6-50.7,103.5c-18.7,37.8-43.2,85.7-73.4,143.5l-120.1,224.3c-11.6,22.3-23.4,39.8-35.4,52.7
		c-12,12.9-24.2,22.9-36.7,30c-12.5,7.1-25.8,11.8-40.1,14c-14.2,2.2-29.8,3.3-46.7,3.3c-16.9,0-32.5-1.1-46.7-3.3
		c-14.2-2.2-27.6-6.9-40.1-14c-12.5-7.1-24.7-17.1-36.7-30c-12-12.9-23.8-30.5-35.4-52.7l-120.1-225.6c-16-30.2-30.3-57.4-42.7-81.4
		c-12.5-24-23.8-45.6-34-64.7c-10.2-19.1-19.1-36.7-26.7-52.7c-7.6-16-14.9-31.6-22-46.7c-7.1,35.6-15.6,72.8-25.4,111.5
		c-9.8,38.7-21.4,83.4-34.7,134.2l-84.1,311h-271l230.9-785c12.5-41.8,32.9-72.8,61.4-92.8c28.5-20,60.1-30,94.8-30
		c35.6,0,65.6,8.5,90.1,25.4c24.5,16.9,44.7,40,60.7,69.4L1080.5,1219.9z"/>
	<g>
		<polygon class="st2" points="2064.6,1119.8 2064.6,1119.8 2193,1119.8 2325.6,1026.6 2261.1,895.5 2287.3,887.5 2225.9,887.5 
			2043,1119.8 2043,1119.8 2043,1119.8 		"/>
		<path class="st2" d="M3370.1,1535.7c-32-10.2-59.9-24.7-83.4-43.4c-23.6-18.7-41.8-41.1-54.7-67.4c-3.4-6.9-6.3-14-8.8-21.4
			c-21.8,36.4-50.6,68.3-86.2,95.1c-35.5,26.7-77.9,48.6-126.1,65.4c22,31.9,48,60.7,78.3,86.5c47.6,40.5,104.3,72.3,170.2,95.5
			c65.9,23.2,137.5,34.7,214.9,34.7h448.5l177.6-229.6h-626.1C3436.8,1551,3402.1,1545.9,3370.1,1535.7z"/>
		<path class="st2" d="M3195.1,1358.1c9.6-19.8,16.7-40.7,21.6-62.7c0.3-1.6,0.6-3.3,1-4.9c3.3-14.4,8.3-28.2,14.8-41.3
			c9.8-19.6,22.3-37.2,37.4-52.8c5.4-5.6,11.2-10.9,17.3-16c23.1-19.1,50.7-34,82.8-44.7c32-10.7,66.8-16,104.1-16h448.5
			l177.6-232.3h-626.1c-77.4,0-149.1,10.5-214.9,31.4c-36.4,11.6-69.9,26-100.7,43c-14.3,7.9-28.1,16.4-41.3,25.4
			c-9.7,6.7-19.2,13.7-28.3,21c-47.6,38.7-85,85-112.1,138.8c-13.7,27.1-23.9,55.6-30.7,85.5c-0.7,6.5-1.9,12.8-3.7,18.7
			c-5.3,17.5-15.7,32.4-31.1,44.6c-6.4,5-13.5,9.4-21.2,13c-21,10-47,15-78.2,15H2043v456.6h275v-228.3h467.2
			c56.7,0,108.2-5.4,154.8-16.1c10.5-2.4,20.8-5,30.7-7.9c5.1-1.5,10.1-3.1,15.1-4.7c47.8-15.6,88.8-36.2,123.1-62
			C3146.8,1433.1,3175.5,1398.6,3195.1,1358.1z"/>
		<path class="st2" d="M2544.2,988.2l56.9,131.6H2812c42.8,0,75.9,9.1,99.5,27.4c3.8,2.9,7.2,6,10.4,9.3
			c4.2-10.2,8.7-20.4,13.7-30.2c30-59.5,71.8-111.3,124.3-153.9c5.5-4.5,11.4-9,17.8-13.7c-30.6-18.9-65.7-34.5-105.4-46.5
			c-54.3-16.5-116.1-24.7-185.6-24.7h-91L2544.2,988.2z"/>
		<polygon class="st2" points="2116.7,1230.1 2538.7,1092.5 2486.2,971.1 2749.1,796.4 2326.8,924 2384.8,1041.7 		"/>
	</g>
</g>
</svg>
